<?xml version="1.0" encoding="UTF-8"?>
<svg id="Layer_1" data-name="Layer 1" xmlns="http://www.w3.org/2000/svg" viewBox="0 0 2000 344">
  <defs>
    <style>
      .cls-1 {
        fill: #2db67b;
      }

      .cls-1, .cls-2 {
        stroke-width: 0px;
      }

      .cls-2 {
        fill: #fffef3;
      }
    </style>
  </defs>
  <g>
    <path class="cls-2" d="M21.1,287.77l21.88-25.1c20.69,21.46,49.4,35.6,79.27,35.6,37.71,0,60.06-18.79,60.06-46.7,0-29.34-20.81-38.7-47.93-50.55l-41.27-18.21c-26.77-11.43-58.18-31.72-58.18-73.98S73.18,32.58,125.38,32.58c34.06,0,64.42,14.75,84.6,35.6l-19.39,23.49c-17.6-16.61-38.67-26.94-65.21-26.94-32.22,0-53.56,16.25-53.56,41.95,0,27.68,25.05,38.03,47.56,47.55l40.95,17.72c33.25,14.29,59.2,34.1,59.2,76.82,0,45.39-37.51,81.65-97.92,81.65-40.33,0-75.39-16.45-100.5-42.65Z"/>
    <path class="cls-2" d="M272.35,13.27h35.37v211.23h1.2l90.85-112.15h39.93l-71.29,85.53,80.64,127.28h-39.37l-62.04-102.27-39.92,46.42v55.86h-35.37V13.27Z"/>
    <path class="cls-2" d="M482.46,45.35c0-14.14,10.87-23.26,24.87-23.26s24.87,9.12,24.87,23.26-10.87,23.26-24.87,23.26-24.87-9.67-24.87-23.26ZM489.06,112.36h36.01v212.81h-36.01V112.36Z"/>
    <path class="cls-2" d="M596.75,282.42V13.27h36.01v271.78c0,11.01,4.79,15.39,10.04,15.39,2.07,0,3.82,0,7.88-.88l4.88,27.49c-5.11,1.84-11.28,3.36-20.73,3.36-26.99,0-38.09-17.22-38.09-48Z"/>
    <path class="cls-2" d="M708.38,282.42V13.27h36.01v271.78c0,11.01,4.79,15.39,10.04,15.39,2.07,0,3.82,0,7.88-.88l4.88,27.49c-5.11,1.84-11.28,3.36-20.73,3.36-26.99,0-38.09-17.22-38.09-48Z"/>
    <path class="cls-2" d="M823.37,37.84h36.56v120.33h133.63V37.84h36.56v287.33h-36.56v-135.08h-133.63v135.08h-36.56V37.84Z"/>
    <path class="cls-2" d="M1089.64,219.04c0-71.01,46.45-111.93,98.61-111.93s98.61,40.92,98.61,111.93-46.45,111.38-98.61,111.38-98.61-40.92-98.61-111.38ZM1249.65,219.04c0-48.77-24.8-81.95-61.4-81.95s-61.4,33.19-61.4,81.95,24.8,81.4,61.4,81.4,61.4-32.63,61.4-81.4Z"/>
    <path class="cls-2" d="M1339.87,247.2V112.36h36.01v130.19c0,39.64,11.99,56.61,40.15,56.61,21.76,0,36.83-10.79,56.98-35.86V112.36h36.01v212.81h-29.75l-3.04-33.32h-1.2c-19.72,23.23-40.97,38.58-70.19,38.58-44.84,0-64.98-28.94-64.98-83.22Z"/>
    <path class="cls-2" d="M1557.28,300.88l17.78-23.72c18.48,14.88,37.26,25.21,62.82,25.21,27.93,0,41.81-14.89,41.81-33.05,0-21.9-25.12-31.58-48.67-40.33-29.82-10.9-63.46-25.57-63.46-61.47,0-34.05,27.28-60.41,73.4-60.41,26.49,0,49.67,10.85,66.17,23.91l-17.22,23.07c-14.65-10.83-29.7-18.94-48.53-18.94-26.81,0-39.18,14.29-39.18,30.52,0,20.24,23.14,27.93,47.24,36.92,30.69,11.57,64.89,24.05,64.89,64.56,0,34.51-27.42,63.27-77.64,63.27-30.23,0-59.4-12.81-79.4-29.54Z"/>
    <path class="cls-2" d="M1748.5,219.04c0-69.26,46.68-111.93,95.66-111.93,54.28,0,84.92,38.98,84.92,99.86,0,7.6-.64,15.2-1.68,20.45h-143.31c2.58,45.08,30.14,74.31,70.71,74.31,20.42,0,37.2-6.59,52.96-17.01l12.9,23.63c-18.66,12.21-41.33,22.07-70.27,22.07-56.72,0-101.88-41.47-101.88-111.38ZM1897.27,201.63c0-42.64-19.18-65.83-52.46-65.83-29.92,0-56.65,24.02-61.03,65.83h113.49Z"/>
  </g>
  <circle class="cls-1" cx="506.92" cy="49.31" r="36.03"/>
</svg>